<?xml version="1.0" encoding="iso-8859-1"?>
<!-- Uploaded to: SVG Repo, www.svgrepo.com, Generator: SVG Repo Mixer Tools -->
<svg fill="#000000" height="800px" width="800px" version="1.1" id="Layer_1" xmlns="http://www.w3.org/2000/svg" xmlns:xlink="http://www.w3.org/1999/xlink" 
	 viewBox="0 0 503.607 503.607" xml:space="preserve">
<g>
	<g>
		<g>
			<path d="M252.836,213.877c-1.469-2.686-1.368-5.959,0.277-8.553l50.554-79.419h-46.953l-66.098,117.508h41.313
				c2.803,0,5.414,1.402,6.975,3.727c1.553,2.333,1.855,5.288,0.781,7.873l-35.479,85.588l104.893-122.368h-48.9
				C257.134,218.233,254.314,216.554,252.836,213.877z"/>
			<path d="M251.802,67.151c-101.821,0-184.656,82.835-184.656,184.656c0,101.812,82.835,184.656,184.656,184.656
				s184.656-82.843,184.656-184.656C436.457,149.986,353.622,67.151,251.802,67.151z M333.713,215.295L182.631,391.557
				c-1.637,1.922-3.995,2.938-6.379,2.938c-1.494,0-3.022-0.403-4.381-1.242c-3.517-2.165-4.944-6.555-3.366-10.366L219.361,260.2
				h-43.1c-2.98,0-5.733-1.586-7.244-4.163c-1.511-2.568-1.536-5.749-0.067-8.351l75.541-134.295
				c1.486-2.635,4.281-4.272,7.311-4.272h67.148c3.064,0,5.884,1.67,7.361,4.348c1.469,2.686,1.368,5.959-0.277,8.553
				l-50.545,79.427h51.855c3.282,0,6.253,1.905,7.621,4.885C336.332,209.302,335.854,212.811,333.713,215.295z"/>
			<path d="M453.246,0H50.361C22.587,0,0,22.587,0,50.361v402.885c0,27.774,22.587,50.361,50.361,50.361h402.885
				c27.774,0,50.361-22.587,50.361-50.361V50.361C503.607,22.587,481.02,0,453.246,0z M50.361,33.574
				c9.275,0,16.787,7.521,16.787,16.787c0,9.266-7.512,16.787-16.787,16.787s-16.787-7.521-16.787-16.787
				C33.574,41.094,41.086,33.574,50.361,33.574z M50.361,470.033c-9.275,0-16.787-7.521-16.787-16.787s7.512-16.787,16.787-16.787
				s16.787,7.521,16.787,16.787S59.635,470.033,50.361,470.033z M251.803,453.246c-111.07,0-201.443-90.372-201.443-201.443
				S140.733,50.361,251.803,50.361s201.443,90.372,201.443,201.443S362.874,453.246,251.803,453.246z M453.246,470.033
				c-9.275,0-16.787-7.521-16.787-16.787s7.512-16.787,16.787-16.787c9.275,0,16.787,7.521,16.787,16.787
				S462.521,470.033,453.246,470.033z M453.246,67.148c-9.275,0-16.787-7.521-16.787-16.787c0-9.266,7.512-16.787,16.787-16.787
				c9.275,0,16.787,7.521,16.787,16.787C470.033,59.627,462.521,67.148,453.246,67.148z"/>
		</g>
	</g>
</g>
</svg>