<svg width="38" height="42" viewBox="0 0 38 42" fill="none" xmlns="http://www.w3.org/2000/svg">
<path d="M26.1983 22.75C27.3858 22.75 28.4308 22.0325 28.9691 20.9475L34.6374 9.59C35.2233 8.435 34.4633 7 33.2599 7H9.8266L8.33827 3.5H3.16077V7H6.32743L12.0274 20.2825L9.88993 24.5525C8.7341 26.8975 10.2541 29.75 12.6608 29.75H31.6608V26.25H12.6608L14.4024 22.75H26.1983ZM11.3308 10.5H30.5683L26.1983 19.25H15.0833L11.3308 10.5ZM12.6608 31.5C10.9191 31.5 9.50993 33.075 9.50993 35C9.50993 36.925 10.9191 38.5 12.6608 38.5C14.4024 38.5 15.8274 36.925 15.8274 35C15.8274 33.075 14.4024 31.5 12.6608 31.5ZM28.4941 31.5C26.7524 31.5 25.3433 33.075 25.3433 35C25.3433 36.925 26.7524 38.5 28.4941 38.5C30.2358 38.5 31.6608 36.925 31.6608 35C31.6608 33.075 30.2358 31.5 28.4941 31.5Z" fill="#B11226"/>
</svg>
